# xmcd
#
# Track frame offsets:
#	150
#	19572
#	40115
#	57467
#	77310
#	92890
#	111655
#	131255
#	146605
#	164267
#	181272
#
# Disc length: 2684 seconds
#
# Revision: 1
# Processed by: cddbd v1.5PL3 Copyright (c) Steve Scherf et al.
# Submitted via: CDex 1.50Beta5
#
DISCID=890a7a0b
DTITLE=テレサ・テン - 別れの予感
DYEAR=1900
DGENRE=
TTITLE0=Pourquoi?
TTITLE1=ジャスミン慕情
TTITLE2=つぐない
TTITLE3=ワインカラーの記憶
TTITLE4=スキャンダル
TTITLE5=時の流れに身をまかせ
TTITLE6=エレジー
TTITLE7=笑って乾杯
TTITLE8=おまもり
TTITLE9=愛人
TTITLE10=別れの予感
EXTD=
EXTT0=
EXTT1=
EXTT2=
EXTT3=
EXTT4=
EXTT5=
EXTT6=
EXTT7=
EXTT8=
EXTT9=
EXTT10=
PLAYORDER=
